<svg width="28" height="28" viewBox="0 0 28 28" fill="none" xmlns="http://www.w3.org/2000/svg">
<g filter="url(#filter0_b_1285_1112)">
<rect x="28" y="28" width="28" height="28" rx="4" transform="rotate(180 28 28)" fill="#228B22"/>
<path d="M13.2929 20.7071C13.6834 21.0976 14.3166 21.0976 14.7071 20.7071L21.0711 14.3431C21.4616 13.9526 21.4616 13.3195 21.0711 12.9289C20.6805 12.5384 20.0474 12.5384 19.6569 12.9289L14 18.5858L8.34315 12.9289C7.95262 12.5384 7.31946 12.5384 6.92893 12.9289C6.53841 13.3195 6.53841 13.9526 6.92893 14.3431L13.2929 20.7071ZM13 8L13 20L15 20L15 8L13 8Z" fill="#010101"/>
</g>
<defs>
<filter id="filter0_b_1285_1112" x="-80" y="-80" width="188" height="188" filterUnits="userSpaceOnUse" color-interpolation-filters="sRGB">
<feFlood flood-opacity="0" result="BackgroundImageFix"/>
<feGaussianBlur in="BackgroundImageFix" stdDeviation="40"/>
<feComposite in2="SourceAlpha" operator="in" result="effect1_backgroundBlur_1285_1112"/>
<feBlend mode="normal" in="SourceGraphic" in2="effect1_backgroundBlur_1285_1112" result="shape"/>
</filter>
</defs>
</svg>
