<svg xmlns="http://www.w3.org/2000/svg" width="21" height="17" viewBox="0 0 21 17" fill="none">
<path fill-rule="evenodd" clip-rule="evenodd" d="M4.04053 0.595618C4.49604 0.225263 5.16106 0.387462 5.45166 0.897038C5.71794 1.36201 5.57331 1.94728 5.16781 2.29601C4.27864 3.0567 3.56502 4.00118 3.07615 5.06433C2.58728 6.12748 2.33479 7.284 2.33609 8.45417C2.33506 9.62428 2.58767 10.7807 3.07652 11.8438C3.56537 12.9069 4.27885 13.8515 5.16781 14.6123C5.57331 14.9611 5.71794 15.545 5.45166 16.0113C5.16106 16.5209 4.49604 16.6831 4.04053 16.3127C2.87314 15.3629 1.93236 14.1645 1.28676 12.805C0.641151 11.4456 0.306982 9.95916 0.3086 8.45417C0.306982 6.94917 0.641151 5.46277 1.28676 4.10328C1.93236 2.74379 2.87314 1.54546 4.04053 0.595618ZM15.4404 0.897038C15.1742 1.36201 15.3188 1.94728 15.7243 2.29601C16.6135 3.05664 17.3272 4.00111 17.8161 5.06427C18.3049 6.12743 18.5574 7.28399 18.556 8.45417C18.5574 9.62434 18.3049 10.7809 17.8161 11.8441C17.3272 12.9072 16.6135 13.8517 15.7243 14.6123C15.3188 14.9611 15.1742 15.545 15.4404 16.0113C15.731 16.5209 16.3961 16.6831 16.8516 16.3127C18.019 15.3629 18.9597 14.1645 19.6053 12.805C20.2509 11.4456 20.5851 9.95916 20.5835 8.45417C20.5851 6.94917 20.2509 5.46277 19.6053 4.10328C18.9597 2.74379 18.019 1.54546 16.8516 0.595618C16.3961 0.225263 15.731 0.387462 15.4404 0.897038ZM6.06532 4.23428C6.49109 3.79229 7.19666 3.95044 7.50078 4.48299C7.75759 4.92904 7.63189 5.48863 7.30614 5.88872C6.71326 6.61211 6.38983 7.51886 6.39107 8.45417C6.39107 9.42736 6.73439 10.3208 7.30614 11.021C7.63189 11.4197 7.75624 11.9779 7.50078 12.4267C7.19666 12.9579 6.49109 13.116 6.06532 12.674C4.97168 11.5417 4.3614 10.0284 4.36358 8.45417C4.36358 6.8146 5.01237 5.32778 6.06667 4.23428H6.06532ZM13.3913 4.48299C13.1345 4.92904 13.2588 5.48863 13.586 5.88872C14.1577 6.58617 14.501 7.48097 14.501 8.45417C14.501 9.42736 14.1577 10.3208 13.586 11.021C13.2588 11.4197 13.1358 11.9779 13.3913 12.4267C13.6954 12.9579 14.401 13.116 14.8268 12.674C15.9205 11.5418 16.5308 10.0284 16.5285 8.45417C16.5285 6.8146 15.8797 5.32778 14.8254 4.23428C14.401 3.79229 13.6954 3.95044 13.3913 4.48299ZM10.446 10.4817C10.9838 10.4817 11.4995 10.268 11.8797 9.88782C12.2599 9.50759 12.4735 8.99189 12.4735 8.45417C12.4735 7.91644 12.2599 7.40074 11.8797 7.02051C11.4995 6.64029 10.9838 6.42668 10.446 6.42668C9.90832 6.42668 9.39262 6.64029 9.01239 7.02051C8.63217 7.40074 8.41856 7.91644 8.41856 8.45417C8.41856 8.99189 8.63217 9.50759 9.01239 9.88782C9.39262 10.268 9.90832 10.4817 10.446 10.4817Z" fill="white"/>
</svg>
